:SAMPLES-PER-SECOND 30
:FULLY-SPECIFIED
:DEGREES
520
root  38.0891 38.2703 -4.16301 -109.942 -86.9391 106.41
RightUpLeg  14.4784 -8.54456 -6.9642
RightLeg  13.0666 6.6684 0.854106
RightFoot  -19.938 0.00862365 1.91078
RightToes  -2.9104e-010 0 -3.6325e-017
Spine  6.0677 1.47387 9.94137
Spine1  0.91404 4.24549 -12.5014
HEad  0.90196 -49.5691 -16.4262
LeftShoulder1  0.445365 2.11375 -25.8619
LeftArm  -4.71117 21.9339 -38.9793
LeftForeArm  28.5265 -17.3676 -4.54828
LeftHand  -0.0397249 6.34532 -0.348811
RightShoulder  -0.165767 -4.75921 5.23199
RightArm  -48.7472 58.9873 24.0682
RightForeArm  -178.731 63.1228 161.66
RightHand  -1.59679 14.3749 -9.7636
LeftUpLeg  -17.5201 1.56825 -3.22648
LeftLeg  6.48908 5.78601 -0.14252
LeftFoot  4.24748 -0.273566 1.82253
LeftToes  -3.37426e-010 -1.91496e-010 5.23909e-011
521
root  36.7773 38.0656 -3.96852 -112.278 -86.3435 108.174
RightUpLeg  15.9813 -6.42803 -7.73363
RightLeg  15.4952 5.58884 0.911833
RightFoot  -20.8763 0.237497 4.51228
RightToes  -2.9104e-010 0 -3.6325e-017
Spine  6.03362 1.71367 8.57106
Spine1  0.96169 4.30687 -12.0009
HEad  0.53344 -49.221 -15.9382
LeftShoulder1  0.35064 2.43117 -26.4795
LeftArm  -5.21884 21.4477 -38.2884
LeftForeArm  28.9353 -16.3252 -4.81056
LeftHand  -0.0444481 6.512 -1.27512
RightShoulder  -0.21083 -5.13924 4.86766
RightArm  -50.0536 59.8705 23.1882
RightForeArm  -176.999 62.943 161.962
RightHand  -1.47225 14.5547 -8.96456
LeftUpLeg  -17.7644 2.29801 -4.43578
LeftLeg  11.137 3.86094 0.408389
LeftFoot  8.10104 -0.728976 4.06356
LeftToes  -3.37426e-010 -1.91496e-010 5.23909e-011
522
root  35.4787 37.9053 -3.7607 -105.626 -85.2837 101.064
RightUpLeg  16.2801 -3.32887 -8.73966
RightLeg  19.9635 3.37968 1.18581
RightFoot  -21.0028 0.586798 8.63976
RightToes  -2.9104e-010 0 -3.6325e-017
Spine  6.2658 1.76587 6.86973
Spine1  0.53294 4.25384 -12.3044
HEad  1.32148 -49.1347 -16.45
LeftShoulder1  0.384543 2.33061 -26.5951
LeftArm  -6.03934 21.188 -37.8381
LeftForeArm  29.8253 -14.7519 -5.1994
LeftHand  -0.0494564 6.64712 -1.02893
RightShoulder  -0.219393 -5.14997 5.36323
RightArm  -51.3385 60.1046 21.8207
RightForeArm  -176.545 62.8061 162.106
RightHand  -1.39992 14.6877 -8.49085
LeftUpLeg  -18.1569 2.98086 -6.60672
LeftLeg  16.8127 3.02759 1.24268
LeftFoot  5.07003 -0.993472 6.65138
LeftToes  -3.37426e-010 -1.91496e-010 5.23909e-011
523
root  34.2993 37.8502 -3.52689 -107.067 -84.462 102.176
RightUpLeg  14.7191 -1.52397 -9.84711
RightLeg  26.8272 3.35079 1.63348
RightFoot  -18.7664 0.794776 14.5173
RightToes  -2.9104e-010 0 -3.6325e-017
Spine  6.48682 1.88743 5.78987
Spine1  0.519791 4.25021 -13.1219
HEad  1.87472 -48.6449 -17.0913
LeftShoulder1  0.385828 2.3217 -26.4506
LeftArm  -7.08254 21.0217 -38.1564
LeftForeArm  31.2948 -13.5684 -5.37031
LeftHand  -0.0600656 7.16727 -1.27574
RightShoulder  -0.194385 -4.98089 5.17119
RightArm  -51.1384 60.0254 22.3036
RightForeArm  -176.803 62.5118 162.298
RightHand  -1.5259 14.1125 -9.49122
LeftUpLeg  -17.4518 3.40321 -7.85392
LeftLeg  19.9897 3.21429 1.64107
LeftFoot  2.20113 -0.908249 7.51627
LeftToes  -3.37426e-010 -1.91496e-010 5.23909e-011
524
root  33.2104 37.9039 -3.29366 -116.284 -83.5063 111.143
RightUpLeg  10.8879 0.271927 -11.1974
RightLeg  35.9524 3.57447 2.52705
RightFoot  -12.7291 0.156604 18.2842
RightToes  -2.9104e-010 0 -3.6325e-017
Spine  7.2198 2.38223 4.74457
Spine1  -0.0858015 4.48662 -13.3812
HEad  2.11082 -47.9601 -17.511
LeftShoulder1  0.392989 2.30068 -26.4771
LeftArm  -7.67948 21.0257 -38.7607
LeftForeArm  31.7366 -13.0576 -5.41158
LeftHand  -0.0512247 7.68087 -0.427812
RightShoulder  -0.196335 -5.02147 4.92543
RightArm  -50.4788 60.2977 23.1028
RightForeArm  -177.201 62.6455 162.162
RightHand  -1.90443 12.885 -12.4268
LeftUpLeg  -15.9409 4.53517 -8.72965
LeftLeg  21.2525 3.63051 1.86352
LeftFoot  -0.215159 -0.772799 7.9302
LeftToes  -3.37426e-010 -1.91496e-010 5.23909e-011
525
root  32.1055 38.0263 -3.10029 -120.574 -82.6295 115.381
RightUpLeg  5.47968 2.13783 -12.0739
RightLeg  46.0109 3.3468 3.39988
RightFoot  -2.87202 -1.08016 15.0994
RightToes  -2.9104e-010 0 -3.6325e-017
Spine  7.2233 2.44405 3.3031
Spine1  -0.2181 4.28948 -12.6772
HEad  1.37484 -46.8356 -17.0018
LeftShoulder1  0.407118 2.2529 -26.3569
LeftArm  -6.66716 20.8146 -39.0822
LeftForeArm  31.2236 -13.399 -5.59189
LeftHand  -0.0643041 8.03325 -0.92692
RightShoulder  -0.198941 -5.03718 4.96772
RightArm  -49.5824 61.0741 24.2559
RightForeArm  -177.194 63.0034 161.898
RightHand  -1.80596 13.0215 -11.7452
LeftUpLeg  -13.9758 5.39993 -9.44025
LeftLeg  21.2709 3.72544 1.82162
LeftFoot  -2.07384 -0.637705 7.99421
LeftToes  -3.37426e-010 -1.91496e-010 5.23909e-011
